<svg width="54" height="54" viewBox="0 0 54 54" fill="none" xmlns="http://www.w3.org/2000/svg">
<circle cx="27" cy="27" r="27" fill="url(#paint0_linear)"/>
<path d="M26.7268 38C26.6507 38 26.5745 38 26.4978 37.9996C24.6949 38.004 23.029 37.9582 21.409 37.8596C19.9237 37.7692 18.5679 37.256 17.488 36.3754C16.446 35.5258 15.7344 34.3769 15.3731 32.9612C15.0586 31.7286 15.0419 30.5187 15.026 29.3485C15.0144 28.5088 15.0025 27.5139 15 26.5021C15.0025 25.4861 15.0144 24.4911 15.026 23.6515C15.0419 22.4814 15.0586 21.2715 15.3731 20.0387C15.7344 18.623 16.446 17.4742 17.488 16.6245C18.5679 15.744 19.9237 15.2307 21.4092 15.1403C23.0292 15.0419 24.6954 14.9959 26.5022 15.0003C28.3056 14.9964 29.971 15.0419 31.591 15.1403C33.0763 15.2307 34.4321 15.744 35.512 16.6245C36.5542 17.4742 37.2656 18.623 37.6269 20.0387C37.9414 21.2713 37.9581 22.4814 37.974 23.6515C37.9856 24.4911 37.9977 25.4861 38 26.4979V26.5021C37.9977 27.5139 37.9856 28.5088 37.974 29.3485C37.9581 30.5186 37.9416 31.7285 37.6269 32.9612C37.2656 34.3769 36.5542 35.5258 35.512 36.3754C34.4321 37.256 33.0763 37.7692 31.591 37.8596C30.0396 37.954 28.4458 38 26.7268 38ZM26.4978 36.2028C28.2714 36.207 29.8999 36.1622 31.4819 36.0661C32.605 35.9978 33.5787 35.6333 34.3765 34.9829C35.1138 34.3815 35.6217 33.5518 35.8858 32.5169C36.1476 31.4909 36.1627 30.3892 36.1773 29.3239C36.1887 28.4899 36.2006 27.5019 36.2031 26.5C36.2006 25.4978 36.1887 24.5101 36.1773 23.676C36.1627 22.6107 36.1476 21.5091 35.8858 20.4829C35.6217 19.4479 35.1138 18.6183 34.3765 18.0169C33.5787 17.3666 32.605 17.0021 31.4819 16.9339C29.8999 16.8375 28.2714 16.7931 26.502 16.797C24.7288 16.7928 23.1001 16.8375 21.5181 16.9339C20.395 17.0021 19.4213 17.3666 18.6235 18.0169C17.8862 18.6183 17.3783 19.4479 17.1142 20.4829C16.8524 21.5091 16.8373 22.6105 16.8227 23.676C16.8113 24.5108 16.7994 25.4992 16.7969 26.5021C16.7994 27.5005 16.8113 28.4892 16.8227 29.3239C16.8373 30.3892 16.8524 31.4909 17.1142 32.5169C17.3783 33.5518 17.8862 34.3815 18.6235 34.9829C19.4213 35.6332 20.395 35.9976 21.5181 36.0659C23.1001 36.1622 24.7291 36.2072 26.4978 36.2028ZM26.455 32.1152C23.3588 32.1152 20.8395 29.5963 20.8395 26.5C20.8395 23.4037 23.3588 20.8847 26.455 20.8847C29.5514 20.8847 32.0704 23.4037 32.0704 26.5C32.0704 29.5963 29.5514 32.1152 26.455 32.1152ZM26.455 22.6816C24.3495 22.6816 22.6365 24.3946 22.6365 26.5C22.6365 28.6053 24.3495 30.3183 26.455 30.3183C28.5606 30.3183 30.2735 28.6053 30.2735 26.5C30.2735 24.3946 28.5606 22.6816 26.455 22.6816ZM32.6994 19.0878C31.9551 19.0878 31.3517 19.6911 31.3517 20.4355C31.3517 21.1799 31.9551 21.7832 32.6994 21.7832C33.4438 21.7832 34.0471 21.1799 34.0471 20.4355C34.0471 19.6911 33.4438 19.0878 32.6994 19.0878Z" fill="white"/>
<defs>
<linearGradient id="paint0_linear" x1="5" y1="54" x2="67" y2="-23" gradientUnits="userSpaceOnUse">
<stop offset="0.0364583" stop-color="#FFC551"/>
<stop offset="0.276042" stop-color="#F7504E"/>
<stop offset="0.538401" stop-color="#9235C6"/>
<stop offset="0.854167" stop-color="#B934AB"/>
</linearGradient>
</defs>
</svg>
