<svg width="54" height="54" viewBox="0 0 54 54" fill="none" xmlns="http://www.w3.org/2000/svg">
<path d="M27.0003 0.00012207C12.0884 0.00012207 0 12.0875 0 27.0005C0 41.9111 12.0884 53.9995 27.0003 53.9995C41.9116 53.9995 54 41.9111 54 27.0005C54 12.0874 41.9116 0.00012207 27.0003 0.00012207Z" fill="#D8DBBA"/>
<path d="M39.3976 18.8201H13.9585C10.4703 18.8201 7.64258 21.6475 7.64258 25.1357V29.3026C7.64258 32.7907 10.4703 35.6186 13.9585 35.6186H39.3976C42.886 35.6186 45.7134 32.7907 45.7134 29.3026V25.1357C45.7134 21.6475 42.886 18.8201 39.3976 18.8201Z" fill="black"/>
<path d="M26.6792 40.1364C33.8856 40.1364 39.7276 34.2549 39.7276 26.9998C39.7276 19.7447 33.8856 13.8633 26.6792 13.8633C19.4728 13.8633 13.6309 19.7447 13.6309 26.9998C13.6309 34.2549 19.4728 40.1364 26.6792 40.1364Z" fill="black"/>
<path d="M39.3436 20.1359C34.914 20.1359 32.5891 20.1359 32.5891 20.1359C32.5891 20.1359 27.4575 20.3111 27.4575 25.3988V29.2587C27.4575 29.2587 27.6798 31.8772 24.8291 34.3769L39.5498 34.3649C39.5498 34.3649 44.344 33.776 44.344 29.4339C44.344 25.0918 44.344 25.0918 44.344 25.0918C44.344 25.0918 43.774 20.1359 39.3436 20.1359Z" fill="white"/>
<path d="M18.6406 22.811L17.917 27.7454L17.0179 22.833H14.8906L13.9694 27.7454L13.2678 22.833H10.8555L12.8732 31.2326H15.0002L15.9215 26.0568L16.8644 31.2326H19.0135L21.0091 22.811H18.6406Z" fill="white"/>
<path d="M24.1894 25.1138H22.0181V31.1885H24.1894V25.1138Z" fill="white"/>
<path d="M23.1264 22.3286C22.4297 22.3286 21.8652 22.8148 21.8652 23.4141C21.8652 24.0137 22.4297 24.4997 23.1264 24.4997C23.8225 24.4997 24.3872 24.0137 24.3872 23.4141C24.3872 22.8147 23.8227 22.3286 23.1264 22.3286Z" fill="white"/>
<path d="M41.1194 25.1138H38.9482V31.1885H41.1194V25.1138Z" fill="black"/>
<path d="M40.0558 24.5004C40.7521 24.5004 41.3167 24.0144 41.3167 23.4149C41.3167 22.8154 40.7521 22.3293 40.0558 22.3293C39.3594 22.3293 38.7949 22.8154 38.7949 23.4149C38.7949 24.0144 39.3594 24.5004 40.0558 24.5004Z" fill="black"/>
<path d="M37.6111 24.807V22.8334H30.396V31.167H32.7207V28.6228H37.1288V26.6712H32.7207V24.807H37.6111Z" fill="black"/>
<path d="M44.9326 19.0754V19.2644H45.4559V20.7959H45.6805V19.2644H46.2063V19.0754H44.9326Z" fill="#231F20"/>
<path d="M48.0005 19.0754H47.7171L47.4109 19.9076C47.3344 20.1246 47.2731 20.3135 47.227 20.487H47.222C47.1761 20.3083 47.1199 20.1195 47.0484 19.9076L46.7549 19.0754H46.4715L46.3516 20.7958H46.5634L46.6092 20.0581C46.6247 19.7978 46.6374 19.5118 46.6425 19.2975H46.6477C46.6961 19.5016 46.7625 19.7212 46.8443 19.9663L47.125 20.7857H47.2934L47.5973 19.951C47.684 19.7137 47.7529 19.4966 47.8141 19.2976H47.8192C47.8192 19.5095 47.8347 19.8005 47.8473 20.0404L47.8883 20.7959H48.1077L48.0005 19.0754Z" fill="#231F20"/>
</svg>
