<svg width="23" height="22" viewBox="0 0 23 22" fill="none" xmlns="http://www.w3.org/2000/svg">
<path d="M21.7125 10.2875L11.7125 0.287513C11.5679 0.151853 11.3879 0.0599017 11.1932 0.022296C10.9985 -0.0153097 10.7972 0.00296723 10.6125 0.0750127C10.4305 0.151514 10.2752 0.280178 10.1662 0.444788C10.0572 0.609397 9.99939 0.802588 10 1.00001V8.58751L1.7125 0.287513C1.56792 0.151853 1.38788 0.0599017 1.19321 0.022296C0.99855 -0.0153097 0.797216 0.00296723 0.612505 0.0750127C0.430504 0.151514 0.275219 0.280178 0.16622 0.444788C0.0572219 0.609397 -0.000612701 0.802588 4.89514e-06 1.00001V21C-0.000612701 21.1974 0.0572219 21.3906 0.16622 21.5552C0.275219 21.7198 0.430504 21.8485 0.612505 21.925C0.735854 21.974 0.867288 21.9994 1 22C1.26555 21.9989 1.52055 21.896 1.7125 21.7125L10 13.4125V21C9.99939 21.1974 10.0572 21.3906 10.1662 21.5552C10.2752 21.7198 10.4305 21.8485 10.6125 21.925C10.7359 21.974 10.8673 21.9994 11 22C11.2655 21.9989 11.5205 21.896 11.7125 21.7125L21.7125 11.7125C21.9003 11.5229 22.0056 11.2669 22.0056 11C22.0056 10.7332 21.9003 10.4771 21.7125 10.2875Z" fill="white"/>
</svg>
